<svg width="110" height="57" viewBox="0 0 110 57" fill="none" xmlns="http://www.w3.org/2000/svg">
<path d="M11.8846 45.5064C11.1353 44.1708 9.7939 43.2826 8.26501 43.2826C6.73613 43.2826 5.39471 44.1708 4.64547 45.5064H11.8846ZM4.08964 49.1318C4.52438 51.2468 6.22869 52.8181 8.26501 52.8181C9.78794 52.8181 11.1289 51.9357 11.8846 50.6H15.6491C14.6341 53.9058 11.7091 56.2926 8.26501 56.2926C3.98096 56.2926 0.5 52.6005 0.5 48.0503C0.5 43.5061 3.98096 39.8082 8.26501 39.8082C11.7091 39.8082 14.6402 42.2008 15.6491 45.5064C15.8969 46.304 16.03 47.1622 16.03 48.0503C16.03 48.4189 16.0056 48.7756 15.9572 49.1318H4.08964Z" fill="#50AA3E"/>
<path d="M37.05 45.2968V56.2219H33.3936V45.2968C33.3936 44.1423 32.4545 43.2033 31.3004 43.2033C30.1465 43.2033 29.2072 44.1423 29.2072 45.2968V56.2219H25.5508V45.2968C25.5508 44.1423 24.6121 43.2033 23.4576 43.2033C22.3035 43.2033 21.3648 44.1423 21.3648 45.2968V56.2219H17.708V45.2968C17.708 42.1258 20.2874 39.5472 23.4576 39.5472C24.9741 39.5472 26.3505 40.1409 27.3788 41.1037C28.4067 40.1409 29.7839 39.5472 31.3001 39.5472C34.4707 39.5472 37.0497 42.1258 37.05 45.2968Z" fill="#50AA3E"/>
<path d="M45.454 52.618V56.2434H44.0133C41.4361 56.2434 39.3398 54.1474 39.3398 51.5701V36.0928H42.9655V39.8094H45.3475V43.435H42.9655V51.5701C42.9655 52.1478 43.4357 52.618 44.0133 52.618H45.454Z" fill="#50AA3E"/>
<path d="M57.8519 45.5064C57.1026 44.1708 55.7616 43.2826 54.2323 43.2826C52.7034 43.2826 51.3625 44.1708 50.6128 45.5064H57.8519ZM50.0569 49.1318C50.4922 51.2468 52.196 52.8181 54.2323 52.8181C55.7552 52.8181 57.0966 51.9357 57.8519 50.6H61.6169C60.6014 53.9058 57.6768 56.2926 54.2323 56.2926C49.9482 56.2926 46.4678 52.6005 46.4678 48.0503C46.4678 43.5061 49.9482 39.8082 54.2323 39.8082C57.6768 39.8082 60.6075 42.2008 61.6169 45.5064C61.8647 46.304 61.9973 47.1622 61.9973 48.0503C61.9973 48.4189 61.9734 48.7756 61.925 49.1318H50.0569Z" fill="#50AA3E"/>
<path d="M69.8261 52.618V56.2434H68.3854C65.8082 56.2434 63.7119 54.1474 63.7119 51.5701V36.0928H67.3379V39.8399H69.7196V43.4656H67.3379V51.5701C67.3379 52.1478 67.8078 52.618 68.3854 52.618H69.8261Z" fill="#50AA3E"/>
<path d="M87.5206 48.6609V56.1934H83.8946V52.7085V50.013C83.8946 49.0181 83.9637 47.7733 83.7833 46.7914C83.7182 46.4377 83.6641 46.3067 83.5295 45.9732C83.1531 45.0403 82.483 44.2155 81.6069 43.7212C80.7207 43.2212 79.6399 43.0777 78.654 43.3293C77.6681 43.5807 76.788 44.2243 76.2496 45.0877C75.4574 46.358 75.4391 47.9453 75.445 49.4424C75.4541 51.7023 75.4605 53.9623 75.4605 56.2219H71.835V47.8809C71.835 47.7665 71.8469 47.655 71.8511 47.5415V36.0924H75.4442V41.1663C76.6667 40.3306 78.1181 39.8393 79.6778 39.8393C84.0024 39.8393 87.5206 43.2833 87.5206 48.6609Z" fill="#50AA3E"/>
<path d="M105.907 36.0919H109.5V56.2219H105.907V36.0919Z" fill="#50AA3E"/>
<path d="M96.2099 52.6916C93.865 52.6916 91.9574 50.6005 91.9574 48.0301C91.9574 45.4598 93.865 43.3687 96.2099 43.3687C98.3588 43.3687 100.136 45.1265 100.419 47.3983V48.662C100.136 50.9338 98.3588 52.6916 96.2099 52.6916ZM100.419 40.2554V41.1795C99.2048 40.3503 97.7614 39.8634 96.2099 39.8634C91.9323 39.8634 88.4521 43.527 88.4521 48.0301C88.4521 52.5332 91.9323 56.1969 96.2099 56.1969C97.7614 56.1969 99.2048 55.71 100.419 54.8808V55.5111H104.011V40.2554H100.419Z" fill="#50AA3E"/>
<path d="M65.0613 1.17391C66.6335 2.20556 67.5808 3.90854 67.384 6.12673C67.1813 8.41239 65.9413 10.0068 63.7785 10.7677C61.6932 11.5014 59.7263 11.1629 58.1871 9.53146C56.4327 7.6719 54.4238 6.33875 51.844 7.05979C50.4429 7.45137 49.12 8.42346 47.9821 9.39238C45.8185 11.2347 42.7879 11.4354 40.6624 9.65157C38.4919 7.82995 38.0086 4.71966 39.5414 2.43618C41.0879 0.132402 44.1808 -0.691123 46.6142 0.63425C47.2988 1.00711 47.8892 1.58749 48.451 2.14502C51.2568 4.92949 55.0163 4.92463 57.8141 2.10454C59.8864 0.0156946 62.4674 -0.39388 65.0613 1.17391Z" fill="#50AA3E"/>
<path d="M72.2205 14.2559C73.7927 15.2876 74.74 16.9906 74.5431 19.2088C74.3405 21.4944 73.1006 23.0888 70.9377 23.8498C68.8524 24.5834 66.8856 24.245 65.3464 22.6135C63.592 20.7539 61.583 19.4208 59.0033 20.1418C57.602 20.5334 56.2792 21.5054 55.1413 22.4744C52.9777 24.3167 49.947 24.5173 47.8217 22.7336C45.6511 20.912 45.1678 17.8017 46.7006 15.5182C48.2471 13.2143 51.34 12.3909 53.7734 13.7163C54.4579 14.0891 55.0484 14.6694 55.6102 15.227C58.4159 18.0115 62.1754 18.0065 64.9733 15.1866C67.0456 13.0977 69.6265 12.6882 72.2205 14.2559Z" fill="#50AA3E"/>
<path d="M79.5593 14.3683C76.867 16.4757 76.5433 20.6064 79.4464 23.1755C80.8057 24.3787 82.9046 24.4484 84.6025 23.8509C86.7652 23.0898 88.0051 21.4955 88.2079 19.2099C88.4046 16.9916 87.4573 15.2888 85.8853 14.2569C83.9494 12.9864 81.5015 13.2366 79.5593 14.3683Z" fill="#50AA3E"/>
<path d="M31.9675 14.3683C29.2752 16.4757 28.9515 20.6064 31.8546 23.1755C33.2139 24.3787 35.3128 24.4484 37.0107 23.8509C39.1734 23.0898 40.4133 21.4955 40.6161 19.2099C40.8128 16.9916 39.8655 15.2888 38.2935 14.2569C36.3576 12.9864 33.9097 13.2366 31.9675 14.3683Z" fill="#50AA3E"/>
</svg>
